<svg id="Front" xmlns="http://www.w3.org/2000/svg" viewBox="0 0 75 75"><defs><style>.cls-1{fill:#ff8780}.cls-2{fill:#ed4847}</style></defs><title>Hats</title><path class="cls-1" d="M66.14 74.73H8.86l.2-.43.57-1.27 1.38-3.07 1.37-3.06.83-1.85.84-1.86 1.14-2.55.41-.88 1.13-2.53.74-1.64.92-2.08.83-1.85 1.86-4.12.04-.11.59-1.28 1.04-2.32 1.2-2.67.58-1.28.9-2.01.94-2.09.72-1.62.08-.17 2.61-5.8.3-.66.4-.88.98-2.17.99-2.21L37.51 11l4.21 9.41 1.83 4.07.89 1.97.12.28.36.79.05.09.25.58 2.34 5.21.35.76 1.66 3.71.71 1.57.04.09.09.22.59 1.28 1.26 2.8.99 2.2.15.35.41.92.1.24 2.19 4.88.36.78.14.31 1.68 3.72.96 2.14.21.46.4.9 1.11 2.46.99 2.22.67 1.49 2.69 6 .58 1.27.25.56z"/><path class="cls-2" d="M37.5 22.24a.5.5 0 0 1-.5-.5V.27a.5.5 0 1 1 1 0v21.47a.5.5 0 0 1-.5.5z"/><path class="cls-2" d="M48.23 11.5H26.76a.5.5 0 0 1 0-1h21.47a.5.5 0 0 1 0 1z"/><path class="cls-2" d="M29.91 19.09a.5.5 0 0 1-.35-.85L44.73 3.06a.5.5 0 0 1 .71.71L30.26 18.94a.5.5 0 0 1-.35.15z"/><path class="cls-2" d="M45.09 19.09a.5.5 0 0 1-.35-.15L29.55 3.77a.5.5 0 0 1 .71-.71l15.18 15.18a.5.5 0 0 1-.35.85zm8.72 28.21l-1.4-.56-14.78 5.96-14.79-5.96-1.72.69.59-1.28 1.13-.46 14.79 5.96 14.78-5.96.84.34.15.35.41.92zM51 41.03l-13.37-5.4-13.68 5.53.58-1.28 13.1-5.29 12.78 5.16.59 1.28zm8.85 19.7l-7.44 2.99-14.78-5.96-14.79 5.96-7.65-3.08.41-.88 7.24 2.91 14.79-5.96 14.78 5.96 7.04-2.84.4.9z"/><circle class="cls-2" cx="22.84" cy="54.31" r="2.92"/><circle class="cls-2" cx="52.41" cy="54.31" r="2.92"/><circle class="cls-2" cx="37.63" cy="65.65" r="2.92"/><circle class="cls-2" cx="37.63" cy="43.84" r="2.92"/><path class="cls-2" d="M44.97 27.61l-7.34 2.97-7.55-3.05.4-.88 7.15 2.88 6.93-2.8.36.79.05.09zM51 41.03l-13.37-5.4-13.68 5.53.58-1.28 13.1-5.29 12.78 5.16.59 1.28zm14.89 33.14l-13.48-5.43-14.78 5.96-14.79-5.96L9.06 74.3l.57-1.27 13.21-5.34 14.79 5.98 14.78-5.98 12.9 5.21.58 1.27z"/><circle class="cls-2" cx="37.63" cy="65.84" r="2.92"/><circle class="cls-2" cx="37.63" cy="21.71" r="2.92"/></svg>