<svg id="Front" xmlns="http://www.w3.org/2000/svg" viewBox="0 0 75 75"><defs><style>.cls-1{fill:#25d4c7}.cls-2{fill:#55ebe0}</style></defs><title>Hats</title><path class="cls-1" d="M66.14 75H8.86l4.36-9.68 4.25-9.46 9.7-21.6 5.27-11.72 5.07-11.26 7.41 16.51 5.4 12.01 6.15 13.67 5.32 11.85L66.14 75z"/><path class="cls-2" d="M50.32 39.8a6.51 6.51 0 0 1-2.7.58 6.58 6.58 0 0 1-2.7-12.59zM35.13 27.83a6.58 6.58 0 0 1-6.59 6.59 6.31 6.31 0 0 1-1.37-.15l5.27-11.72a6.49 6.49 0 0 1 2.69 5.28z"/><circle class="cls-1" cx="37.5" cy="7.83" r="7.83"/><path class="cls-2" d="M25.62 62.25a6.58 6.58 0 0 1-12.4 3.07l4.25-9.46a6 6 0 0 1 1.57-.2 6.58 6.58 0 0 1 6.58 6.59z"/><circle class="cls-2" cx="36.29" cy="50.34" r="6.58"/><path class="cls-2" d="M61.79 65.32a6.49 6.49 0 0 1-3.63 1.09 6.58 6.58 0 0 1-1.7-12.94zM45.77 75a6.59 6.59 0 1 0-9.48 0"/></svg>